<svg id="vector" xmlns="http://www.w3.org/2000/svg" width="7" height="11" viewBox="0 0 7 11"><path fill="#000000" d="M2.359,10.594V9.797H4.5V10.594H2.359Z" fill-rule="evenodd" id="path_0"/><path fill="#000000" d="M0.763,2.257C1.316,1.544 2.2,1 3.5,1C4.8,1 5.684,1.544 6.237,2.257C6.783,2.962 7,3.823 7,4.469C7,5.094 6.754,5.645 6.485,6.093C6.35,6.319 6.205,6.523 6.08,6.7L6.065,6.721C5.943,6.892 5.846,7.03 5.781,7.144C5.631,7.411 5.552,7.557 5.505,7.733C5.458,7.91 5.438,8.13 5.438,8.542V9.145C5.438,9.354 5.268,9.523 5.058,9.523H1.942C1.732,9.523 1.562,9.354 1.562,9.145V8.542C1.562,8.13 1.542,7.91 1.495,7.733C1.448,7.557 1.369,7.411 1.219,7.144C1.154,7.03 1.057,6.892 0.935,6.721L0.92,6.7C0.795,6.523 0.65,6.319 0.515,6.093C0.246,5.645 0,5.094 0,4.469C0,3.823 0.217,2.962 0.763,2.257ZM4.905,2.273L2.359,4.964H3.364L2.359,7.364L4.905,4.673H3.967L4.905,2.273Z" fill-rule="evenodd" id="path_1"/></svg>