<svg id="vector" xmlns="http://www.w3.org/2000/svg" width="32" height="32" viewBox="0 0 32 32"><path fill="#000000" d="M28,22.399H18.353C17.477,22.399 16.623,22.674 15.913,23.184L14.898,23.799H28V22.399Z" fill-opacity="0.15" id="path_0"/><path fill="#000000" d="M27.995,20.763H27.998V23.999L3.998,24V19.297C3.998,17.776 4.745,16.348 6.005,15.46L15.327,8.891C16.149,8.311 17.137,8 18.149,8H27.995V20.763ZM18.153,21.751C17.351,21.751 16.569,21.999 15.918,22.457L14.989,23.01H26.987V21.751H18.153ZM18.149,8.988C17.347,8.988 16.566,9.235 15.915,9.694L6.593,16.263L6.412,16.4C5.525,17.108 5.005,18.17 5.005,19.297V23.01H13.045L15.371,21.627C16.185,21.065 17.157,20.763 18.153,20.763H26.987V8.988H18.149Z" fill-rule="evenodd" id="path_1"/><path fill="#000000" d="M23.498,13.746L22.753,13L20.248,15.507L17.744,13L16.998,13.746L20.248,17L23.498,13.746Z" id="path_2"/></svg>