<svg id="vector" xmlns="http://www.w3.org/2000/svg" width="9" height="12" viewBox="0 0 9 12"><path fill="#fff" d="M4.623,5.026L1.67,10.14L2.362,10.539L5.314,5.425L4.623,5.026Z" id="path_0"/><path fill="#fff" d="M3.361,4.462C3.551,4.572 3.787,4.521 3.886,4.348L5.639,1.312C5.739,1.139 5.666,0.909 5.475,0.799C5.285,0.69 5.049,0.741 4.95,0.913L3.197,3.95C3.097,4.122 3.17,4.352 3.361,4.462ZM6.402,6.217C6.592,6.327 6.827,6.276 6.927,6.103L8.684,3.06C8.784,2.887 8.711,2.658 8.52,2.548C8.33,2.438 8.094,2.489 7.995,2.662L6.237,5.705C6.138,5.878 6.211,6.107 6.402,6.217Z" fill-rule="evenodd" id="path_1"/><path fill="#fff" d="M8.265,6.478L2.203,2.978L1.276,4.583C0.423,6.061 1.088,8.043 2.763,9.009L2.763,9.009C4.437,9.976 6.485,9.561 7.338,8.083L8.265,6.478Z" id="path_2"/></svg>