<svg id="vector" xmlns="http://www.w3.org/2000/svg" width="32" height="32" viewBox="0 0 32 32"><path fill="#000000" d="M6.352,9.084L6.353,9.085L12.282,11.488L12.311,11.502L12.332,11.51H16.562V21.138L12.808,22.685H9.701L9.673,22.734L9.631,22.81C8.92,24.066 7.537,24.915 6,25V23.908C7.779,23.78 9.162,22.321 9.162,20.588C9.162,18.855 7.779,17.394 6,17.266V16.172C8.334,16.303 10.235,18.222 10.235,20.588C10.235,20.83 10.234,21.104 10.168,21.297L10.106,21.476L10.066,21.593H12.601L12.621,21.585L12.649,21.572L12.65,21.573L15.338,20.487L15.488,20.427V12.602H12.125L6,10.114V8.938L6.352,9.084Z" id="path_0"/><path fill="#000000" d="M23.669,6.781C24.376,6.781 25.059,7.063 25.565,7.571C26.072,8.08 26.36,8.775 26.36,9.501H25.428C25.428,9.042 25.246,8.598 24.919,8.27C24.591,7.941 24.142,7.751 23.669,7.751C23.196,7.751 22.746,7.94 22.418,8.27C22.091,8.598 21.909,9.041 21.909,9.5V11.436H25.428V11.435H26.36V11.436H28V18.756H19.337V11.436H20.977V9.501C20.977,8.775 21.264,8.08 21.771,7.571C22.277,7.063 22.962,6.781 23.669,6.781ZM20.269,17.785H27.068V12.407H20.269V17.785Z" fill-rule="evenodd" id="path_1"/></svg>