<svg id="vector" xmlns="http://www.w3.org/2000/svg" width="32" height="32" viewBox="0 0 32 32"><path fill="#000000" d="M14.382,12.142V8.259C14.382,6.959 13.328,5.904 12.028,5.904H11.287C8.315,5.904 5.906,8.313 5.906,11.285V11.584C5.906,14.391 8.182,16.666 10.988,16.666H12.144C12.486,16.666 12.763,16.943 12.763,17.285C12.763,17.627 12.486,17.904 12.144,17.904H8.183C6.926,17.904 5.906,18.924 5.906,20.181V20.714C5.906,23.686 8.315,26.095 11.287,26.095H11.586C14.393,26.095 16.668,23.819 16.668,21.013V19.857C16.668,19.515 16.945,19.238 17.287,19.238C17.629,19.238 17.906,19.515 17.906,19.857V23.818C17.906,25.075 18.926,26.095 20.183,26.095H20.716C23.688,26.095 26.097,23.686 26.097,20.714V20.415C26.097,17.608 23.821,15.333 21.014,15.333H19.859C19.517,15.333 19.24,15.056 19.24,14.714C19.24,14.372 19.517,14.095 19.859,14.095H23.82C25.077,14.095 26.097,13.075 26.097,11.818V11.142C26.097,8.249 23.752,5.904 20.859,5.904H20.703C17.896,5.904 15.62,8.18 15.62,10.986V12.142C15.62,12.484 15.343,12.761 15.002,12.761C14.66,12.761 14.382,12.484 14.382,12.142ZM13.335,8.259V12.142C13.335,13.063 14.081,13.809 15.002,13.809C15.922,13.809 16.668,13.063 16.668,12.142V10.986C16.668,8.758 18.475,6.952 20.703,6.952H20.859C23.173,6.952 25.049,8.828 25.049,11.142V11.818C25.049,12.497 24.499,13.047 23.82,13.047H19.859C18.938,13.047 18.192,13.793 18.192,14.714C18.192,15.634 18.938,16.381 19.859,16.381H21.014C23.243,16.381 25.049,18.187 25.049,20.415V20.714C25.049,23.107 23.109,25.047 20.716,25.047H20.183C19.504,25.047 18.954,24.497 18.954,23.818V19.857C18.954,18.936 18.208,18.19 17.287,18.19C16.367,18.19 15.62,18.936 15.62,19.857V21.013C15.62,23.241 13.814,25.047 11.586,25.047H11.287C8.894,25.047 6.954,23.107 6.954,20.714V20.181C6.954,19.502 7.504,18.952 8.183,18.952H12.144C13.065,18.952 13.811,18.206 13.811,17.285C13.811,16.365 13.065,15.619 12.144,15.619H10.988C8.76,15.619 6.954,13.812 6.954,11.584V11.285C6.954,8.892 8.894,6.952 11.287,6.952H12.028C12.75,6.952 13.335,7.537 13.335,8.259ZM9.963,7.058C8.163,7.621 6.857,9.301 6.857,11.286V11.584C6.857,13.865 8.706,15.714 10.987,15.714H12.143C13.011,15.714 13.714,16.418 13.714,17.286C13.714,17.989 13.252,18.584 12.616,18.785C13.253,18.585 13.716,17.989 13.716,17.285C13.716,16.417 13.012,15.714 12.144,15.714H10.988C8.708,15.714 6.859,13.865 6.859,11.584V11.285C6.859,9.301 8.164,7.621 9.963,7.058ZM7.785,18.918C7.247,19.086 6.857,19.589 6.857,20.182V20.714C6.857,23.16 8.84,25.143 11.286,25.143H11.584C12.015,25.143 12.429,25.077 12.819,24.955C12.43,25.077 12.016,25.142 11.586,25.142H11.287C8.841,25.142 6.859,23.16 6.859,20.714V20.181C6.859,19.589 7.248,19.087 7.785,18.918ZM16.815,18.358C16.963,18.311 17.122,18.286 17.286,18.286C18.154,18.286 18.857,18.989 18.857,19.857V23.818C18.857,24.55 19.45,25.143 20.182,25.143H20.714C21.176,25.143 21.62,25.072 22.038,24.941C21.621,25.072 21.177,25.142 20.716,25.142H20.183C19.452,25.142 18.859,24.549 18.859,23.818V19.857C18.859,18.989 18.155,18.285 17.287,18.285C17.122,18.285 16.964,18.311 16.815,18.358ZM19.386,13.215C19.535,13.168 19.693,13.143 19.857,13.143H23.818C23.957,13.143 24.091,13.122 24.217,13.082C24.091,13.121 23.958,13.142 23.82,13.142H19.859C19.694,13.142 19.535,13.168 19.386,13.215ZM19.468,7.044C17.789,7.569 16.571,9.136 16.571,10.987V12.143C16.571,12.846 16.11,13.441 15.473,13.642C16.11,13.442 16.573,12.846 16.573,12.142V10.986C16.573,9.136 17.79,7.569 19.468,7.044ZM14.287,8.259V12.142C14.287,12.537 14.607,12.857 15.002,12.857C15.076,12.857 15.148,12.845 15.215,12.824C15.147,12.846 15.075,12.857 15,12.857C14.606,12.857 14.286,12.537 14.286,12.143V8.26C14.286,7.012 13.274,6 12.026,6H11.286C10.737,6 10.208,6.084 9.711,6.239C10.209,6.083 10.738,6 11.287,6H12.028C13.276,6 14.287,7.011 14.287,8.259ZM19.212,6.226C19.683,6.079 20.183,6 20.701,6H20.857C23.698,6 26,8.303 26,11.143V11.818C26,12.796 25.357,13.623 24.471,13.901C25.358,13.624 26.001,12.796 26.001,11.818V11.142C26.001,8.302 23.699,6 20.859,6H20.703C20.184,6 19.683,6.079 19.212,6.226ZM19.643,14.033C19.353,14.123 19.143,14.394 19.143,14.714C19.143,15.109 19.463,15.429 19.857,15.429H21.013C23.767,15.429 26,17.661 26,20.416V20.714C26,23.082 24.444,25.085 22.299,25.758C24.444,25.086 26.001,23.082 26.001,20.714V20.415C26.001,17.661 23.769,15.428 21.014,15.428H19.859C19.464,15.428 19.144,15.108 19.144,14.714C19.144,14.394 19.354,14.124 19.643,14.033ZM17.072,19.175C16.782,19.266 16.571,19.537 16.571,19.857V21.013C16.571,23.248 15.101,25.139 13.076,25.773C15.102,25.14 16.573,23.248 16.573,21.013V19.857C16.573,19.537 16.783,19.267 17.072,19.175ZM7.531,18.099C7.736,18.035 7.955,18 8.182,18H12.143C12.218,18 12.29,17.988 12.358,17.967C12.291,17.988 12.219,18 12.144,18H8.183C7.956,18 7.737,18.034 7.531,18.099Z" fill-rule="evenodd" id="path_0"/></svg>