<svg id="vector" xmlns="http://www.w3.org/2000/svg" width="32" height="32" viewBox="0 0 32 32"><path fill="#000000" d="M6.469,9.199L7.179,9.91L7.16,9.968C7.028,10.383 6.957,10.826 6.957,11.285V11.584C6.957,13.809 8.761,15.614 10.986,15.614H12.143C13.066,15.614 13.814,16.363 13.814,17.286C13.814,18.209 13.065,18.957 12.143,18.957H8.182C7.505,18.957 6.957,19.505 6.957,20.182V20.714C6.957,23.104 8.895,25.042 11.285,25.042H11.584C13.809,25.042 15.614,23.238 15.614,21.013V19.856C15.614,19.476 15.743,19.127 15.956,18.847L16.025,18.756L16.724,19.454L16.775,19.507L16.741,19.571C16.697,19.656 16.671,19.754 16.671,19.856V21.013C16.671,23.822 14.393,26.1 11.584,26.1H11.285C8.311,26.099 5.901,23.688 5.9,20.714V20.182C5.901,18.922 6.922,17.899 8.182,17.899H12.143C12.482,17.899 12.757,17.625 12.757,17.286C12.757,16.947 12.482,16.671 12.143,16.671H10.986C8.177,16.671 5.9,14.393 5.9,11.584V11.285C5.9,10.558 6.044,9.865 6.306,9.232L6.362,9.094L6.469,9.199ZM16.545,21.522C16.537,21.602 16.527,21.681 16.516,21.759C16.528,21.678 16.538,21.597 16.546,21.516L16.545,21.522ZM16.593,19.684C16.591,19.691 16.59,19.698 16.588,19.705C16.596,19.67 16.605,19.635 16.618,19.602L16.593,19.684ZM15.964,19.009C15.919,19.079 15.88,19.153 15.846,19.229L15.9,19.117C15.92,19.08 15.941,19.044 15.964,19.009ZM6.878,12.007C6.881,12.04 6.887,12.072 6.891,12.104C6.878,12.003 6.868,11.901 6.862,11.797L6.878,12.007ZM15.266,24.377L15.112,24.537C15.111,24.538 15.11,24.538 15.109,24.539C15.163,24.486 15.215,24.432 15.266,24.377Z" fill-rule="evenodd" id="path_0"/><path fill="#000000" d="M18.957,21.688V23.817C18.957,24.494 19.505,25.042 20.182,25.042H20.714C21.173,25.042 21.615,24.97 22.03,24.838L22.088,24.819L22.905,25.636L22.767,25.692C22.134,25.953 21.441,26.1 20.714,26.1H20.182C18.921,26.1 17.899,25.077 17.899,23.817V20.631L18.957,21.688Z" id="path_1"/><path fill="#000000" d="M7.236,6.486L25.574,24.749L25.646,24.819L25.574,24.89L24.951,25.514L24.88,25.584L24.81,25.514L6.472,7.252L6.4,7.181L6.472,7.11L7.095,6.486L7.166,6.416L7.236,6.486Z" id="path_2"/><path fill="#000000" d="M20.856,5.9C23.752,5.9 26.1,8.247 26.1,11.143V11.817C26.1,13.078 25.078,14.101 23.817,14.101H19.856C19.517,14.101 19.243,14.375 19.243,14.714C19.243,15.053 19.517,15.328 19.856,15.328H21.013C23.822,15.328 26.1,17.607 26.1,20.416V20.714C26.1,21.443 25.954,22.138 25.691,22.771L25.634,22.91L25.528,22.804L24.817,22.094L24.836,22.035C24.969,21.619 25.042,21.175 25.042,20.714V20.416C25.042,18.191 23.238,16.386 21.013,16.386H19.856C18.934,16.385 18.185,15.637 18.185,14.714C18.186,13.791 18.934,13.042 19.856,13.042H23.817C24.494,13.042 25.042,12.494 25.042,11.817V11.143C25.042,8.831 23.168,6.957 20.856,6.957H20.701C18.476,6.957 16.671,8.761 16.671,10.986V12.143C16.671,12.602 16.485,13.017 16.185,13.319L16.115,13.391L16.044,13.32L15.367,12.644L15.436,12.572C15.546,12.461 15.614,12.31 15.614,12.143V10.986C15.615,8.177 17.892,5.901 20.701,5.9H20.856ZM26,20.416C26,20.333 25.998,20.25 25.994,20.167L25.993,20.159C25.997,20.244 26,20.33 26,20.416ZM22.446,16.541L22.433,16.536C22.385,16.519 22.337,16.503 22.289,16.487C22.342,16.504 22.394,16.522 22.446,16.541ZM21.522,15.454C21.602,15.462 21.681,15.472 21.759,15.483C21.598,15.459 21.435,15.443 21.27,15.435L21.522,15.454ZM21.509,6.907C21.651,6.929 21.791,6.957 21.928,6.992L21.721,6.944C21.651,6.93 21.58,6.918 21.509,6.907ZM20.278,6.878C20.232,6.883 20.185,6.889 20.139,6.896C20.254,6.88 20.37,6.868 20.488,6.862L20.278,6.878Z" fill-rule="evenodd" id="path_3"/><path fill="#000000" d="M12.026,5.9C13.329,5.901 14.385,6.957 14.385,8.26V11.661L14.215,11.49L13.328,10.604V8.26C13.328,7.541 12.745,6.957 12.026,6.957H11.285C10.824,6.957 10.379,7.029 9.963,7.162L9.905,7.181L9.861,7.138L9.194,6.471L9.089,6.364L9.227,6.308C9.861,6.045 10.556,5.9 11.285,5.9H12.026Z" id="path_4"/></svg>