<svg id="vector" xmlns="http://www.w3.org/2000/svg" width="32" height="32" viewBox="0 0 32 32"><path fill="#000000" d="M15.069,25L10.086,20.202H3V12.115H10.086L15.069,7.317V25ZM13.938,22.413V9.904L10.535,13.18H4.131V19.136H10.535L13.938,22.413Z" fill-rule="evenodd" id="path_0"/><path fill="#000000" d="M28.869,15.719C28.869,12.678 27.741,9.888 25.902,7.752L26.683,7C28.763,9.363 30,12.423 30,15.719C30,19.016 28.763,22.076 26.683,24.439L25.898,23.683C27.735,21.478 28.869,18.769 28.869,15.719Z" id="path_1"/><path fill="#000000" d="M24.311,15.632C24.311,13.822 23.722,12.171 22.7,10.835L23.483,10.08C24.744,11.625 25.442,13.394 25.442,15.544C25.442,17.7 24.74,19.624 23.483,21.182L22.7,20.428C23.722,19.093 24.311,17.442 24.311,15.632Z" id="path_2"/><path fill="#000000" d="M19.846,15.632C19.846,15.038 19.693,14.524 19.466,14.037L20.355,13.181C20.814,13.916 21.068,14.712 21.068,15.632C21.068,16.551 20.814,17.347 20.355,18.082L19.475,17.235C19.704,16.772 19.846,16.201 19.846,15.632Z" id="path_3"/></svg>