<svg id="vector" xmlns="http://www.w3.org/2000/svg" width="32" height="32" viewBox="0 0 32 32"><path fill="#000000" d="M12.501,7.431C13.397,6.514 14.611,6 15.877,6C17.142,6 18.357,6.514 19.252,7.431C20.148,8.347 20.652,9.591 20.652,10.887V12.839H23.754V26.241H8V12.839H11.102V10.887C11.102,9.591 11.606,8.347 12.501,7.431ZM15.877,7.16C14.909,7.16 13.982,7.553 13.299,8.253C12.615,8.952 12.232,9.9 12.232,10.887V12.839H19.522V10.887C19.522,9.9 19.139,8.952 18.455,8.253C17.772,7.553 16.844,7.16 15.877,7.16ZM22.624,13.999H9.129V25.081H22.624V13.999Z" fill-rule="evenodd" id="path_0"/></svg>