<svg id="vector" xmlns="http://www.w3.org/2000/svg" width="32" height="32" viewBox="0 0 32 32"><path fill="#000000" d="M12.554,5.445C13.458,4.52 14.685,4 15.963,4C17.241,4 18.468,4.52 19.372,5.445C20.277,6.371 20.786,7.627 20.786,8.937V11.12H19.663V8.937C19.663,7.934 19.274,6.973 18.58,6.263C17.886,5.553 16.945,5.154 15.963,5.154C14.981,5.154 14.039,5.553 13.346,6.263C12.652,6.973 12.263,7.934 12.263,8.937V14.455H23.926V28H8V14.455H11.14V8.937C11.14,7.627 11.649,6.371 12.554,5.445ZM22.803,15.609H9.123V26.846H22.803V15.609Z" fill-rule="evenodd" id="path_0"/></svg>