<svg id="vector" xmlns="http://www.w3.org/2000/svg" width="32" height="32" viewBox="0 0 32 32"><path fill="#000000" d="M4.996,19.293V23H26.996V9H18.151C17.348,9 16.566,9.247 15.915,9.705L6.585,16.264C5.587,16.966 4.996,18.093 4.996,19.293Z" fill-opacity="0.15" id="path_0"/><path fill="#000000" d="M26.988,23.011V8.989H18.149V8H27.996V24H3.996V19.298C3.996,17.777 4.744,16.349 6.004,15.461L15.326,8.891C16.149,8.312 17.136,8.001 18.149,8V8.989C17.347,8.989 16.565,9.236 15.914,9.695L6.592,16.264L6.41,16.401C5.523,17.109 5.004,18.171 5.004,19.298V23.011H26.988Z" id="path_1"/><path fill="#000000" d="M23.496,16.304L22.811,17L20.246,14.394L17.681,17L16.996,16.304L20.246,13L23.496,16.304Z" id="path_2"/></svg>