<svg id="vector" xmlns="http://www.w3.org/2000/svg" width="32" height="32" viewBox="0 0 32 32"><path fill="#000000" d="M25.524,7.809L24.715,7L20.34,11.376L21.149,12.185L25.524,7.809Z" id="path_0"/><path fill="#000000" d="M11.976,7.02C6.999,7.02 3,11.019 3,16C3,20.981 6.999,24.98 11.976,24.98H17.591V7.02H11.976ZM4.143,16C4.143,11.649 7.624,8.166 11.976,8.166H16.448V23.834H11.976C7.624,23.834 4.143,20.351 4.143,16Z" fill-rule="evenodd" id="path_1"/><path fill="#000000" d="M29.357,15.427H23.171V16.573H29.357V15.427Z" id="path_2"/><path fill="#000000" d="M25.524,24.191L21.149,19.815L20.34,20.624L24.715,25L25.524,24.191Z" id="path_3"/></svg>